<svg viewBox="55.5 55.5 969 969" xmlns="http://www.w3.org/2000/svg" width="2500" height="2500"><circle cx="540" cy="540" fill="#cd0e2d" r="484.5"/><path d="M539.78 998.83c-253.93.92-462.72-208.26-459.22-465.69 3.36-246.9 206.11-455.99 466.4-452.36 250.87 3.5 455.84 209.71 452.1 466.23-3.66 250.77-209.04 452.59-459.28 451.82z" fill="#0a2240"/><path d="M539.38 874.88c-181.81.5-330.83-146-334.79-327.25-4.19-191.25 151.08-345.85 340.48-342.95 182.51 2.79 330 151.69 330.05 335.11.05 186.62-152.44 336.25-335.74 335.09z" fill="#3a8cdd"/><g fill="#fefefe"><path d="M779.87 864.12c8.71 3.24 16.96 6.32 25.89 9.64-5.35 3.77-10.16 7.16-14.97 10.53-1.42.99-2.66.02-3.91-.48-6.17-2.47-12.38-4.86-18.47-7.52-2.11-.92-3.84-.79-5.18.83-1.4 1.69.67 2.67 1.37 3.75 2.65 4.06 5.42 8.05 8.34 11.93 1.35 1.8 1.53 2.86-.59 4.17-3.64 2.26-7.29 6.88-10.62 6.61-3.39-.28-5.13-6.2-7.59-9.65-4.43-6.21-8.7-12.52-13.04-18.79-4.17-6.03-7.75-12.67-16.85-14.54 5.47-3.81 9.95-6.94 14.44-10.06 4.9-3.4 9.8-6.79 14.69-10.2 2.86-1.99 5.91-3.64 9.25-4.65 7.78-2.34 14.59-.08 19.11 6.26 4.49 6.3 4.47 13.06-.08 19.73-.46.67-.97 1.31-1.79 2.43zM523 133.15c0 11.34-.1 22.69.07 34.03.05 3.08-.52 4.78-3.98 4.11-.53-.1-1.12-.1-1.66 0-3.9.7-5.22-.65-5.03-4.8.41-8.99.3-18 .29-27.01 0-8.65 1.08-17.51-5.13-25.59 7.18 0 13.51.07 19.84-.04 1.92-.03 2.63 1.26 3.56 2.41 7.86 9.68 15.7 19.37 23.56 29.06.84 1.04 1.73 2.05 3.33 3.94 0-11.05-.04-21.08.05-31.11.01-1.34-1.02-3.61 1.03-3.89 2.94-.4 6.07-.72 8.97.28.87.3.47 1.77.47 2.72-.05 17.04-.15 34.09-.13 51.13 0 2.31-.65 2.83-2.97 3.1-7.19.82-12.2-1.28-16.64-7.56-7.64-10.81-16.45-20.79-24.77-31.11-.29.11-.58.23-.87.34zM185.58 310.32c-.02-17.18 15.13-33.34 31.23-33.33 16.13.02 31.05 14.28 31.08 29.72.04 16.93-15.41 33.4-31.33 33.38-16.1-.01-30.96-14.29-30.98-29.78zM642.6 159.43c.17-.71.18-1.01.3-1.24q3.7-6.78 11.2-4.74c4.54 1.23 9.07 2.54 13.65 3.61 2.06.48 2.67 1.11 2.03 3.36-2.14 7.45-4.09 14.96-5.93 22.49-.5 2.06-1.5 2.97-3.49 3.47-14.01 3.53-26.77.78-37.95-8.13-10.06-8.01-12.4-21.21-6.83-34.46 5.16-12.27 15.92-18.57 30.1-17.32 7.7.68 14.87 3.08 21.34 7.47 2.59 1.76 3.9 3.63 2.49 6.85-.86 1.97-1.22 4.16-1.97 6.86-4.66-7.25-11.1-10.59-18.83-11.71-7.28-1.05-13.01 2.21-15.23 9.18-1.81 5.66-3.4 11.44-4.47 17.27-1.63 8.89 9.13 18.41 17.68 16.05 1.44-.4 1.51-1.5 1.78-2.49 1.03-3.74 1.81-7.55 3-11.23.68-2.12.32-3.01-1.89-3.42-2.3-.43-4.54-1.2-6.95-1.86zM542.83 909.76c12.88-1 24.47-2.2 36.1-2.72 15.94-.71 25.56 10.79 21.83 25.62-2.22 8.81-8.66 12.88-17.01 14.33-4.35.76-8.82.93-13.24 1.2-2.25.14-3.15.84-2.81 3.28.53 3.84.64 7.73 1.04 11.59.18 1.73-.22 2.49-2.13 2.54-2.9.09-5.89.13-8.67.85-4.66 1.21-5.43-.98-5.68-4.94-.74-11.76-1.95-23.48-2.72-35.24-.39-5.96-1.95-11.36-6.71-16.51zM446.19 897.6c13.34 2.53 25.69 4.29 37.71 7.32 12.36 3.12 17.33 12.73 14.18 24.9-2.58 9.95-10.94 15.59-21.75 14.4-4.67-.51-9.31-1.38-13.94-2.26-1.95-.37-2.69.09-2.97 2.1-.55 3.97-1.49 7.89-2.04 11.86-.27 1.9-1.08 2.26-2.75 1.88-2.02-.46-4.08-.79-6.11-1.19-7.47-1.48-7.42-1.47-6-9.13 2.09-11.3 4.16-22.6 6.14-33.92.9-5.14.52-10.2-2.48-15.97zM473.57 175.55c-5.21 1.44-10.12 2.74-14.99 4.18-2.03.6-2.95-.75-3.58-2.04-3.36-6.86-8.25-7.85-15.05-4.96-4.68 1.98-9.79 3.01-14.78 4.14-2.3.52-3.41 1.52-3.39 3.83 0 .27-.1.54-.14.82q-1.37 9-11.08 11.34c.64-5.04 1.21-9.89 1.87-14.73a8991.1 8991.1 0 0 1 4.54-32.94c.54-3.88.11-7.49-2.77-10.43-1.37-1.4-1.36-2.12.78-2.67 6.04-1.54 12.03-3.23 18.02-4.95 1.4-.4 2.29-.13 3.2 1.02 11.68 14.8 23.4 29.57 35.1 44.35.68.85 1.3 1.75 2.26 3.04zM273.05 262.3c9.74.08 17.18-3.43 23.43-9.55 4.36-4.28 5.42-7.89 3.44-10.9-2.12-3.21-5-3.34-11.18-.67-4.95 2.14-9.86 4.45-14.96 6.15-5.86 1.96-11.55 1.46-16.09-3.4-4.75-5.07-5.87-11.11-3.28-17.36 4.78-11.53 13.89-18.33 25.6-21.92 1.04-.32 2.17-.57 3.06.5 1.92 2.3 3.86 4.58 6.3 7.47-7.26 0-12.92 2.23-17.96 6.11-2.32 1.79-4.39 3.82-5.73 6.49-.99 1.97-1.42 3.99.24 5.81 1.55 1.7 3.57 2.19 5.7 1.34 4.75-1.9 9.46-3.92 14.17-5.91 2.81-1.18 5.63-2.34 8.67-2.78 12.96-1.88 22.29 9.26 18.23 21.75-.82 2.53-2.02 4.86-3.58 7-6.15 8.46-14.42 14.03-24.11 17.65-3.01 1.13-5.52 1.08-7.39-2.13-1.07-1.84-2.68-3.37-4.55-5.65zM885.86 371.27c-2.76 8.57-2.13 16.37 1.47 23.93.96 2.01 2.07 3.94 3.66 5.51 1.89 1.88 4.15 2.87 6.79 1.8 2.62-1.06 3.78-3.3 3.66-5.97-.19-4.15-.62-8.28-1.05-12.41-.34-3.32-.63-6.63-.29-9.95 1.17-11.5 12.34-17.52 22.66-12.24 3.14 1.61 5.72 3.91 7.79 6.73 5.13 7 7.89 14.82 8.27 23.53.15 3.5-.76 5.8-4.45 6.63-1.72.39-3.33 1.29-5.67 2.24 1.45-5.47 1.81-10.48.48-15.51-.93-3.51-2.13-6.9-4.42-9.76-1.59-1.99-3.5-3.87-6.35-2.86-2.74.97-3.55 3.44-3.41 6.07.28 4.98.73 9.94 1.2 14.9.27 2.91.33 5.79-.15 8.69-2.14 12.82-15.8 18.5-26.25 10.67-8.2-6.15-11.92-15.03-13.88-24.78-.11-.54-.14-1.1-.23-1.65-1.84-10.97-1.25-11.91 10.18-15.58zM844.02 774.01c-7.16 1.15-12.45 4.22-16.78 8.93-1.21 1.32-2.35 2.75-3.25 4.29-1.64 2.8-3.29 5.94-.39 8.73 2.79 2.68 5.75.8 8.36-.79 4.5-2.73 8.84-5.73 13.36-8.41 4.48-2.66 9.27-4.54 14.63-3.38 8.76 1.9 14.55 11.02 12.23 20.13-3.46 13.59-12.75 22.31-25 28.29-1.36.66-2.56.69-3.79-.43-2.12-1.94-4.36-3.75-7.14-6.13 8.23-1.5 14.6-5.03 19.71-10.71 1.96-2.18 3.75-4.48 4.65-7.31.81-2.54.6-4.95-1.62-6.81-2.17-1.83-4.58-1.99-6.94-.56-3.79 2.3-7.44 4.81-11.21 7.13-2.23 1.38-4.51 2.73-6.89 3.82-5.83 2.64-11.55 2.87-16.74-1.53-5.21-4.41-6.73-10.27-5.07-16.56 3.09-11.71 10.9-19.64 21.55-25 1.39-.7 2.56-.66 3.76.48 1.9 1.8 3.91 3.48 6.58 5.83zM639.41 896.04c14.58-5.19 28.04-9.87 41.4-14.8 3.84-1.42 3.83 2.05 5.38 3.52 2.56 2.43 1.96 3.73-1.41 4.78-6.47 2.02-12.76 4.57-19.21 6.65-2.5.8-2.87 1.84-1.86 4.1 1.46 3.26 1.83 8.33 4.19 9.48 2.32 1.13 6.56-1.67 9.95-2.77 1.18-.38 2.34-.86 3.51-1.28 6.45-2.28 6.34-2.27 6.54 4.71.06 1.96-.68 2.69-2.31 3.24-4.2 1.41-8.34 2.98-12.55 4.35-1.95.63-2.65 1.46-1.8 3.55 1.41 3.46 2.73 6.97 3.77 10.55.66 2.25 1.63 2.3 3.57 1.58 7.14-2.64 14.37-5.02 21.49-7.69 2.44-.91 3.17-.77 3.51 2.14.54 4.53-.59 6.78-5.31 8.23-10.57 3.25-20.92 7.21-31.3 11.05-2.43.9-3.45.69-4.37-1.97-4.13-12.04-8.6-23.96-12.75-35.99-1.85-5.37-4.3-10.17-10.46-13.43zM747.68 193.83c-6.1 6.77-6.07 6.71-13.47 2.77-3.02-1.6-6.28-5.09-9.05-4.12-2.36.83-3.48 5.29-5.07 8.19-3 5.47-2.98 5.48 2.49 8.46 6.53 3.56 13.06 7.1 19.53 10.63-.15.46-.16.62-.25.71q-5.49 6.38-12.93 2.33c-9.24-5.03-18.44-10.13-27.74-15.05-2.23-1.18-2.48-2.09-1.21-4.33 4.94-8.66 9.67-17.43 14.39-26.22 3.89-7.24 9.18-14.03 7.27-23.1 2.23-.08 3.38 1.06 4.67 1.76 10.96 5.93 21.88 11.92 32.81 17.9 2.63 1.44 3.41 7.76 1.23 9.88-1.05 1.03-1.76-.08-2.49-.47-6.33-3.42-12.69-6.81-18.92-10.41-2.08-1.2-3.31-1.44-4.34 1.09-1.39 3.4-5.52 6.75-4.48 9.69.91 2.56 5.77 3.73 8.89 5.48 2.76 1.55 5.54 3.07 8.67 4.8zM871.64 270.84c9.09 12.74 17.44 24.47 25.85 36.16.89 1.23.91 2.1-.08 3.25-1.44 1.67-2.72 3.48-4.45 5.73-4.67-6.55-9.29-12.68-13.49-19.09-1.9-2.89-3.31-3.44-5.87-.94-2.34 2.29-6.98 3.33-7.25 6.21-.23 2.43 3.15 5.2 4.95 7.8.87 1.25 1.78 2.48 2.67 3.72 4.08 5.67 4.03 5.55-2.54 7.83-1.93.67-2.73.11-3.71-1.3-2.44-3.53-5.18-6.88-7.42-10.54-1.55-2.54-2.77-2.25-4.76-.66-2.7 2.17-5.52 4.21-8.45 6.04-1.95 1.22-1.79 2.17-.56 3.84 5.1 6.9 10.08 13.9 15.06 20.82-.22.26-.28.4-.38.45q-7.79 3.71-12.73-3.19c-5.82-8.11-11.52-16.31-17.53-24.27-2.16-2.86-2.4-4.32.92-6.52 8.31-5.52 16.25-11.59 24.44-17.29 6.41-4.46 12.84-8.83 15.33-18.04zM264.62 807.75c.12-8.03-1.94-14.28-7.32-19.18-6.39-5.82-13.1-5.99-19.72-.39-3.49 2.95-7.01 5.87-10.36 8.98-5.67 5.26-6.43 11.32-2.48 17.96 4.15 6.97 10.7 10.12 18.73 11.41-2.08 2.86-4.81 4.53-7.05 6.71-.83.81-1.7.53-2.69.26-11.71-3.22-23.66-19.49-23.72-32.36-.06-12.3 10.19-25.16 23.15-28.84 8.53-2.43 16.48-.83 23.72 4.14 7.18 4.93 12.15 11.6 15.19 19.77 1.08 2.91 1.04 5.22-1.96 7.02-1.73 1.04-3.17 2.59-5.49 4.54zM805.04 205.47c5.2 4.64 9.81 8.76 14.45 12.86 2.09 1.84-.14 2.67-.94 3.59-9.04 10.3-18.08 20.61-27.31 30.75-2.14 2.35-2.3 3.59.29 5.72 5.76 4.76 11.21 9.89 17.17 15.2-2.35 1.52-4.58 2.83-6.67 4.34-1.46 1.06-2.22.13-3.15-.7-8.9-7.91-17.77-15.87-26.76-23.67-1.88-1.63-1.14-2.5.1-3.9 8.75-9.83 17.26-19.86 26.21-29.5 3.76-4.05 6.02-8.49 6.62-14.69zM198.78 375.98c2.19 1.68 4.1 3.25 6.13 4.66 1.32.92 1.24 1.89.69 3.19-4.66 11.09-9.34 22.18-13.86 33.33-.93 2.28-2.08 1.52-3.52.93-10.64-4.32-21.3-8.57-31.92-12.92-6.4-2.62-12.65-5.87-20.68-2.77 2.7-6.62 5.07-12.29 7.33-18.01 1-2.54 2.49-.91 3.64-.45 12.59 5.02 25.21 9.99 37.68 15.28 3.46 1.47 4.87.96 6.15-2.61 2.46-6.86 5.45-13.54 8.36-20.63zM318.71 894.09c-.16.28-.2.42-.3.51q-6.21 5.99-13.04 1.12c-7.9-5.63-15.69-11.41-23.74-16.82-2.73-1.84-2.54-2.99-.78-5.37 6.72-9.16 13.21-18.49 19.8-27.74q5.97-8.38 7.53-18.34c5.5 3.91 10.78 7.53 15.88 11.38 1.82 1.37-.34 2.44-.99 3.36-7.97 11.33-15.98 22.64-24.12 33.85-1.54 2.13-1.67 3.16.73 4.74 6.46 4.27 12.71 8.85 19.03 13.3zM382.97 874.15c6.64 2.79 12.08 5.11 17.55 7.35 1.58.64 2.02 1.31 1.26 3.07-6.96 16.1-13.83 32.25-20.66 48.41-.77 1.83-1.62 2.18-3.41 1.32-3.24-1.55-6.52-3.04-9.91-4.22-2.48-.86-2.27-2-1.4-3.99 4.62-10.64 9.02-21.38 13.68-32.01 2.69-6.12 5.48-12.13 2.89-19.93zM539.69 861.59c-177.57.84-324.05-145.74-321.85-325.93C219.95 361.87 362.86 215.42 544.76 218c176.95 2.51 319.83 148.33 317.04 327.11-2.75 175.87-147.15 317.34-322.1 316.48z"/></g><path d="M761.64 847.02c2 0 3.43 1.07 4.56 2.53 1.1 1.42 2.08 2.93 3.06 4.45 2.97 4.61 2.45 7.25-2.14 10.46-2.95 2.06-6.11 5.72-8.94 5.51-2.95-.22-4.42-5.15-6.49-8.05-4.63-6.46-4.6-6.53 1.94-10.91 2.49-1.67 4.7-3.97 8.02-3.99zM208.55 290.2c7.5-.05 25.64 12.58 27.62 18.55 1.94 5.86-.53 10.58-4.56 14.62-3.86 3.87-8.96 5-13.74 2.45-6.6-3.53-12.75-7.87-18.2-13.01-3.78-3.57-4.46-8.25-2.25-13.02 2.44-5.28 6-9.32 11.13-9.6zM565.28 920.64c-1.17-3.19.88-4.07 4.43-4.33 12.85-.97 14.26.21 14.75 13.19.23 6.14-1.92 8.63-7.96 9.24-.96.1-1.93.13-2.89.23q-6.8.69-7.27-5.95c-.14-1.93-.23-3.87-.39-5.79-.16-1.93-.39-3.85-.67-6.6zM471.4 934.61c-1.89-.37-6.19-.05-8.72-2.01-2.85-2.2.19-6.2.46-9.42.29-3.43 1.23-6.79 1.7-10.21.32-2.34 1.41-3.05 3.59-2.4.53.16 1.08.28 1.62.33 14.52 1.49 13.59 5.81 10.39 19.18-.85 3.57-3.77 4.91-9.04 4.53z" fill="#0a2240"/><path d="M426.56 142.17c5.74 7.23 10.92 13.76 16.42 20.68-6.17 1.74-11.96 3.38-17.75 5.01-1.3.36-2.12.27-1.87-1.5 1.07-7.73 2.05-15.47 3.2-24.19z" fill="#0b2340"/><path d="M538.76 813.87c-21.07.58-41.8-2.13-62.2-7.06-104.74-25.3-183.55-106.64-205.46-211.98-3.45-16.6-5.1-33.41-5.44-50.38-.07-3.53.63-4.56 4.41-4.55 56.18.15 112.35.1 168.53.1h4.85c-.77-2.18-2.24-2.15-3.43-2.48-14.68-4.06-29.37-8.09-44.05-12.18-1.1-.31-2.85.04-3.02-1.61-.16-1.59 1.16-2.3 2.51-2.9 45.74-20.19 92.24-38.03 142.11-45.08 7.88-1.11 15.64 1.59 23.34 3.14 39.21 7.88 76.14 22.53 112.77 38.06 3.44 1.46 6.86 2.97 10.29 4.46 1.13.49 2.69.74 2.72 2.21.03 1.8-1.8 1.37-2.86 1.66-14.53 4.08-29.08 8.1-43.62 12.15-1.28.36-2.78.28-3.66 1.71 1.31 1.66 3.11.82 4.62.82 55.9.05 111.8.1 167.7-.07 4.17-.01 5.05 1.17 4.83 5.04-.34 5.97-.1 5.89-6.17 6.83-36.02 5.58-72.03 11.22-108.05 16.8-2.31.36-3.9 1.21-5.23 3.36-11.84 19.23-24.26 38.11-35.64 57.63-.63 1.07-1.17 2.18-2.31 2.87-20.5 12.44-42.76 19.25-66.99 21.25 1.35-4.27 3.61-7.57 5.74-10.91 12.33-19.35 27.31-36.68 41.58-54.55 7.7-9.65 15.3-19.35 22.33-29.51 1.87-2.71 1.28-3.45-1.6-4.25-7.38-2.05-7.32-2.14-11.89 4.22-11.35 15.82-24.55 30.05-37.78 44.27-10.86 11.68-21.79 23.3-30.78 36.56-3.12 4.61-5.81 9.45-7.51 14.76-4.01 12.57 0 23.1 11.31 29.92 10.29 6.2 21.8 7.82 33.45 8.79 4.55.38 9.14.43 13.72.42 2.37 0 3.01.5 2.52 3.06-.69 3.57-2.12 5.58-5.84 6.89-18.95 6.63-37.8 13.55-56.6 20.59-3.56 1.33-4.14.57-4.48-3-5.69-59.62-11.54-119.23-17.35-178.85a11590.5 11590.5 0 0 0-4.14-41.8c-.13-1.26.4-3.8-2.33-1.74-1.03 1.22-.46 2.66-.46 3.97-.03 102.15-.03 204.3-.05 306.45 0 1.63.4 3.33-.38 4.91zM616.99 397.86c.22.33.66.66.64.98-.81 13.12 6.8 21.08 16.86 27.5 2.21 1.41 4.61 2.53 6.93 3.77 1.08.57 2.75.96 2.34 2.45-.44 1.59-2.16.78-3.26.76-24.95-.61-49.9-1.13-74.84-2-30.66-1.07-61.27.46-91.9 1.16-11.5.26-23.01.61-34.51.85-.98.02-2.5.73-2.9-.68-.45-1.6 1.17-1.95 2.25-2.46 5.41-2.57 10.49-5.6 14.93-9.7 5.31-4.91 8.33-10.94 9.33-18.05.01-4.3 2.73-4.37 6.09-4.35 20.24.12 40.47.08 60.71.03 1.29 0 2.73.64 3.89-.51 1.87-3.1-.86-5.67-.99-8.55-.21-4.86-2.63-6.08-7.5-5.8-14.11.83-28.26.99-42.39 1.4-1.09.03-2.19 0-3.3 0-.34-1.93 1.25-2.1 2.16-2.7 8.27-5.46 13.41-12.78 13.54-22.96.03-2.42.87-3.03 3.17-3 8.44.12 16.88.05 25.75.05-2.71-10.38-5.34-20.4-7.93-30.44-.53-2.07-1.97-1.42-3.3-1.26-17.56 2.11-34.72 6.12-51.01 12.94-76.43 32.04-122.11 88.9-136.74 170.56-.27 1.5-.38 3.03-.61 4.53-1.16 7.68-1.15 7.78-8.67 8.97-15.46 2.45-30.96 4.71-46.41 7.24-2.9.48-3.53-.05-3.31-2.98 7.64-99.81 54.72-175.11 141.11-225.38 37.15-21.62 77.85-32.29 120.82-34.11 1.1-.05 2.21.07 3.31.11.49.3 1.02.38 1.58.4q6.31.25 6.31 6.39c0 44.92 0 89.84.03 134.76 0 1.32-.56 2.76.45 3.98 2.45 1.68 1.99-.9 2.27-1.74 1.25-3.85 2.29-7.77 3.41-11.67 12.59-.46 25.19-.12 37.79-.19 9.97-.06 19.94 0 29.91-.02 1.92 0 4.03-.31 3.51 2.79.24-1.02-.24-2.13.46-3.06z" fill="#0a2240"/><path d="M794.29 625.05c2.78 4.82 3.75 9.42 1.33 15.09-39.21 92.16-107.61 148.78-205.7 169.31-11.54 2.41-23.31 3.44-35.09 4.15-2.42.15-3.24-.29-2.83-2.85 2.8-17.52 5.55-35.05 8.2-52.59.32-2.09 1.43-2.27 3.08-2.45 32.07-3.36 61.88-13.45 89.42-30.18 28.93-17.57 52.45-40.72 70.78-69.18 1.25-1.94 1.44-3.59.68-5.74-2.31-6.52-4.35-13.15-6.66-19.67-.83-2.33-.86-4.24 1.08-5.94 1.2.4 2.45.37 3.69.37 23.34.01 46.69-.03 70.03.03.69 0 1.38.05 1.99-.35zM718.58 455c-2.16-1.73-2.11-3.82-1.27-6.24 2.22-6.41 4.18-12.91 6.5-19.28.91-2.5.61-4.34-.84-6.52-38.06-57.33-91.02-90.54-159.51-98.58-2.85-.33-3.83-1.26-4.25-4.15-2.45-16.72-5.11-33.41-7.85-50.09-.51-3.11.02-4 3.42-3.81 108.01 5.96 202.38 74.69 241.2 175.63 1.74 4.53.09 7.99-1.53 11.76-1.51 1.22-3.31.99-5.06.99-22.09 0-44.19 0-66.28.02-1.5 0-3.04-.27-4.51.28zM647.8 445.97c1.27.26 1.28 1.41 1.36 2.27 1.39 15.12 8.9 27.47 17.74 39.2 3.59 4.77 7.57 9.2 11.76 13.45 1.33 1.35 2.89 2.61 2.55 4.94-1.53.49-2.63-.6-3.82-1.09-33.7-14.21-67.72-27.5-103.48-35.78-10.67-2.47-21.38-4.77-32.25-6-6.8-.77-13.44 1.46-20.1 2.64-40.6 7.22-79.08 21.14-116.85 37.26-1.98.84-3.97 1.66-6.21 2.59.05-2.79 1.83-3.84 3.11-5.17 8.97-9.35 16.89-19.42 22.76-31.06 3.6-7.13 5.34-14.75 6.71-22.51 1.61-.6 3.29-.3 4.94-.3 68.96-.02 137.93-.01 206.89-.04 1.63 0 3.32.44 4.89-.42zM584.68 357.41c.32 11.93 5.99 20.62 16.33 26.18-.61 1.53-1.58 1.11-2.29 1.09-15.33-.43-30.66-1-45.99-1.29-3.37-.06-3.88-.98-2.91-4.03 2.38-7.46 3.61-15.26 6.36-22.62 7.59.42 15.19.08 22.78.18 5.32.06 5.32.04 4.95 5.61.42-.77.13-1.6.22-2.39.1-.92-.31-1.95.55-2.73zM647.22 651.43c-4.59 9.42-8.45 18.23-11.68 27.3-.52 1.45-1.28 2-2.73 1.83-12.77-1.43-25.65-2.34-37.75-7.28-2.46-1-4.68-2.29-6.55-5.09 20.24-3.01 39.46-8.48 58.7-16.76z" fill="#0a2240"/><path d="M538.76 813.87v-311.7c0-1.22.11-2.44.19-3.66 0-.06.22-.15.32-.14.13 0 .25.11.37.17.03 1.25.09 2.49.09 3.74 0 102.4 0 204.81-.05 307.21 0 1.43 1.04 3.29-.92 4.38z" fill="#001434"/><path d="M647.8 445.97c-.94 1.19-2.27.83-3.47.83-70.67 0-141.33 0-212-.01-.41 0-.83-.04-1.24-.07.69-1.62 2.14-.97 3.27-.97 70.47-.03 140.93-.03 211.4-.02.68 0 1.36.15 2.05.24z" fill="#001232"/><path d="M539.64 411.75c-1.99-.8-.81-2.49-.82-3.64-.08-44.77-.07-89.54-.07-134.31q0-6.11-6.07-6.85c-.5-.06-.95-.48-1.42-.74q8.47-.83 8.47 7.48c-.03 46.02-.06 92.03-.1 138.05z" fill="#001434"/><path d="M533.55 397.59c-.47 2.06-2.1.88-3.05.88-19.65.09-39.3.07-58.95.07q-7.2 0-8.15 7.32c-.25-1.61-.39-2.53-.54-3.44q-.68-5.05 4.34-5.06h62.23c1.37 0 2.75.14 4.12.21z" fill="#041636"/><path d="M616.99 397.86v6.51h-.65c-.06-.66-.25-1.33-.15-1.97.46-3.19-.99-3.94-4-3.92-19.19.12-38.38.07-57.57.05-3.1 0-6.2-.13-9.31-.19.53-1.52 1.84-.94 2.83-.94 22.3-.03 44.6-.03 66.91 0 .65 0 1.3.3 1.95.46z" fill="#031534"/><path d="M794.29 625.05c-.12.56-.3 1.04-1.01 1.04-23.46-.11-46.92-.2-70.38-.33-1.46 0-3.07.54-4.33-.74.51-.68 1.25-.42 1.9-.42h71.03c.94 0 1.95-.27 2.79.45z" fill="#011a39"/><path d="M718.58 455c1.31-1.18 2.91-.67 4.38-.67 21.06-.03 42.13-.02 63.19-.03 2.77 0 5.57.21 8.28-.59.06 1.37-.82 1.53-1.89 1.52l-73.96-.24z" fill="#001938"/><path d="M584.68 357.41c-.1 2.04-.2 4.09-.3 6.28-.87-.65-.74-1.39-.66-2.01.44-3.1-.82-4.1-3.94-4-7.32.25-14.65.1-21.98.26-1.11.02-1.5-.23-1.62-1.21 8.77-1.28 17.59-.2 26.38-.55.93-.04 2.04-.28 2.13 1.21z" fill="#09213f"/><path d="M490.97 653.29c-5.32-10.95-11.83-20.23-18.8-29.16-11.08-14.21-22.41-28.23-33.66-42.32-6.23-7.81-11.95-15.98-17.7-24.14-1.55-2.19-1.06-2.78 1.3-3.49 8.01-2.4 8.08-2.55 12.91 4.34 14.47 20.64 32.37 38.31 49.12 56.99 9.07 10.11 18.18 20.23 24.2 32.62 3.03 6.24 4.83 12.75 3.34 19.71-2.02 9.44-8.68 14.93-16.96 18.6-11.48 5.09-23.77 6.23-36.15 6.73-.97.04-2-.2-2.9.05-2.03.56-5.64-1.47-5.87 1.36-.24 2.95.18 6.47 4.69 8.04 19.09 6.64 37.99 13.83 57 20.7 2.64.95 3.87 2.23 4.22 5.2.96 7.97 2.29 15.91 3.73 23.81.57 3.15-.32 3.72-3.3 3.38-32.75-3.69-63.34-13.81-91.03-31.68-58.82-37.96-92.24-91.99-100.82-161.45-.32-2.6 0-3.31 2.9-2.84 18.05 2.97 36.13 5.76 54.22 8.48 2.03.31 3.16 1.18 4.2 2.83 12.01 19.13 24.45 37.99 35.66 57.61.83 1.45 1.64 2.83 3.17 3.74 20.28 11.95 42.26 18.46 66.51 20.9z" fill="#fefefe"/><path d="M432.96 651.75c18.95 8.34 38.14 13.47 58.33 16.35-2 3.58-5.22 4.78-8.34 5.94-8.9 3.3-18.25 4.61-27.61 5.76-10 1.23-9.95 1.12-13.81-8.26-2.63-6.39-5.48-12.68-8.57-19.79z" fill="#0a2240"/></svg>